<!DOCTYPE svg PUBLIC "-//W3C//DTD SVG 1.1//EN" "http://www.w3.org/Graphics/SVG/1.1/DTD/svg11.dtd">

<!-- Uploaded to: SVG Repo, www.svgrepo.com, Transformed by: SVG Repo Mixer Tools -->
<svg _ngcontent-ng-c586675657="" xmlns="http://www.w3.org/2000/svg" fill="none" viewBox="0 0 223 236" width="50" class="angular-logo">
<g _ngcontent-ng-c586675657="" clip-path="url(#a)">
<path _ngcontent-ng-c586675657="" fill="#ff0000ff" d="m222.077 39.192-8.019 125.923L137.387 0l84.69 39.192Zm-53.105 162.825-57.933 33.056-57.934-33.056 11.783-28.556h92.301l11.783 28.556ZM111.039 62.675l30.357 73.803H80.681l30.358-73.803ZM7.937 165.115 0 39.192 84.69 0 7.937 165.115Z"></path>
<path _ngcontent-ng-c586675657="" fill="#ff0000ff" d="m222.077 39.192-8.019 125.923L137.387 0l84.69 39.192Zm-53.105 162.825-57.933 33.056-57.934-33.056 11.783-28.556h92.301l11.783 28.556ZM111.039 62.675l30.357 73.803H80.681l30.358-73.803ZM7.937 165.115 0 39.192 84.69 0 7.937 165.115Z"></path>
</g>
</svg>